<svg width="64" height="64" viewBox="0 0 64 64" fill="none" xmlns="http://www.w3.org/2000/svg">
<path d="M29.0894 55.273C29.0894 60.0928 25.1822 64 20.3625 64H11.6339C6.81415 64 2.90699 60.0928 2.90699 55.273L2.90699 43.6351C2.90699 38.8153 6.81415 34.9081 11.6339 34.9081H20.3625C25.1822 34.9081 29.0894 38.8153 29.0894 43.6351V55.273Z" fill="#041DFF"/>
<path d="M45.487 1.64165C46.4724 -0.508372 49.5273 -0.508368 50.5127 1.64165L61.4093 25.4163C62.2485 27.2473 60.9106 29.3323 58.8964 29.3323H37.1033C35.0892 29.3323 33.7513 27.2473 34.5905 25.4163L45.487 1.64165Z" fill="#3CC059"/>
<path d="M34.9085 48.5221C34.9085 40.4886 41.4208 33.9761 49.4542 33.9761C57.4876 33.9761 64 40.4886 64 48.5221C64 56.5556 57.4876 63.0681 49.4542 63.0681C41.4208 63.0681 34.9085 56.5556 34.9085 48.5221Z" fill="#E8A82B"/>
<path d="M16.0003 32.0011L10.857 28.4179L4.68639 27.3147L3.58314 21.144L0 16.0006L3.58314 10.8571L4.68639 4.68646L10.857 3.58319L16.0003 0L21.1437 3.58319L27.3143 4.68646L28.4176 10.8571L32.0007 16.0006L28.4176 21.144L27.3143 27.3147L21.1437 28.4179L16.0003 32.0011Z" fill="#E35454"/>
</svg>
